<?xml version="1.0" encoding="UTF-8" standalone="no"?>
<svg
   xmlns:dc="http://purl.org/dc/elements/1.1/"
   xmlns:cc="http://creativecommons.org/ns#"
   xmlns:rdf="http://www.w3.org/1999/02/22-rdf-syntax-ns#"
   xmlns:svg="http://www.w3.org/2000/svg"
   xmlns="http://www.w3.org/2000/svg"
   xmlns:sodipodi="http://sodipodi.sourceforge.net/DTD/sodipodi-0.dtd"
   xmlns:inkscape="http://www.inkscape.org/namespaces/inkscape"
   version="1.0"
   id="Layer_1"
   x="0px"
   y="0px"
   width="1247.783"
   height="787.10101"
   viewBox="0 0 1247.783 787.10101"
   enable-background="new 0 0 1700.79 566.93"
   xml:space="preserve"
   sodipodi:docname="opendata.svg"
   inkscape:version="1.0.1 (1.0.1+r73)"><metadata
   id="metadata23"><rdf:RDF><cc:Work
       rdf:about=""><dc:format>image/svg+xml</dc:format><dc:type
         rdf:resource="http://purl.org/dc/dcmitype/StillImage" /><dc:title></dc:title></cc:Work></rdf:RDF></metadata><defs
   id="defs21" /><sodipodi:namedview
   pagecolor="#ffffff"
   bordercolor="#666666"
   borderopacity="1"
   objecttolerance="10"
   gridtolerance="10"
   guidetolerance="10"
   inkscape:pageopacity="0"
   inkscape:pageshadow="2"
   inkscape:window-width="2560"
   inkscape:window-height="1403"
   id="namedview19"
   showgrid="false"
   fit-margin-top="250"
   fit-margin-left="50"
   fit-margin-right="50"
   fit-margin-bottom="250"
   inkscape:zoom="0.72378129"
   inkscape:cx="767.69102"
   inkscape:cy="449.84"
   inkscape:window-x="2560"
   inkscape:window-y="0"
   inkscape:window-maximized="1"
   inkscape:current-layer="Layer_1"
   inkscape:document-rotation="0" />
<path
   fill="#ef453d"
   d="m 201.507,346.088 v 73.242 l -29.136,30.518 H 79.136 L 50,419.33 V 346.088 L 79.136,315.57 h 93.235 z m -128.198,6.104 v 61.035 l 11.654,12.207 h 81.581 l 11.655,-12.207 V 352.192 L 166.544,339.985 H 84.963 Z"
   id="path2" />
<path
   fill="#ef453d"
   d="m 353.004,346.086 v 36.621 l -29.136,30.518 h -87.407 v -24.414 h 81.58 l 11.654,-12.207 V 352.19 l -11.654,-12.207 h -81.58 l -11.654,12.207 v 172.817 l -23.309,12.094 V 346.086 l 29.136,-30.518 h 93.234 z"
   id="path4" />
<path
   fill="#ef453d"
   d="m 352.991,346.08 29.136,-30.518 h 93.234 l 29.136,30.518 v 18.311 l -29.136,30.518 h -87.407 v -24.414 h 81.58 l 11.654,-12.207 v -6.104 l -11.654,-12.207 h -81.58 l -11.655,12.207 v 61.035 l 11.655,12.207 h 104.889 l -11.654,24.414 h -99.062 l -29.136,-30.518 z"
   id="path6" />
<path
   fill="#ef453d"
   d="m 527.773,352.198 v 97.656 H 504.464 V 346.094 L 533.6,315.576 h 93.235 l 29.135,30.518 v 103.76 h -23.308 v -97.656 l -11.654,-12.207 h -81.581 z"
   id="path8" />
<path
   fill="#ef453d"
   d="M 655.922,419.322 V 346.08 l 29.136,-30.518 h 87.406 v 24.414 h -81.579 l -11.654,12.207 v 61.035 l 11.654,12.207 h 81.579 L 784.12,413.218 784.109,262.125 807.425,250 l 0.004,169.322 -29.137,30.518 h -93.234 z"
   id="path10" />
<path
   fill="#ef453d"
   d="m 807.408,419.316 v -18.311 l 29.136,-30.518 h 87.407 v 24.414 h -81.58 l -11.654,12.207 v 6.104 l 11.654,12.207 h 81.58 l 11.654,-12.207 V 352.177 L 923.951,339.97 H 819.063 l 11.654,-24.414 h 99.062 l 29.137,30.518 v 73.242 l -29.137,30.518 h -93.234 z"
   id="path12" />
<path
   fill="#ef453d"
   d="M 958.853,315.563 V 262.125 L 982.169,250 l -0.01,65.563 h 69.926 v 24.414 h -69.926 v 73.242 l 11.654,12.207 h 58.271 L 1040.43,449.84 H 987.986 L 958.85,419.322 v -79.346 -5.946 -12.875 -5.592 z"
   id="path14" />
<path
   fill="#ef453d"
   d="m 1046.275,419.322 v -18.311 l 29.137,-30.518 h 87.407 v 24.414 h -81.58 l -11.654,12.207 v 6.104 l 11.654,12.207 h 81.58 l 11.654,-12.207 v -61.035 l -11.654,-12.207 h -111.564 l 0.058,-24.414 h 117.334 l 29.136,30.518 v 73.242 l -29.136,30.518 h -93.234 z"
   id="path16" />
</svg>
