<?xml version="1.0" encoding="UTF-8" standalone="no"?>
<!-- Created with Inkscape (http://www.inkscape.org/) -->

<svg
   xmlns:dc="http://purl.org/dc/elements/1.1/"
   xmlns:cc="http://creativecommons.org/ns#"
   xmlns:rdf="http://www.w3.org/1999/02/22-rdf-syntax-ns#"
   xmlns:svg="http://www.w3.org/2000/svg"
   xmlns="http://www.w3.org/2000/svg"
   xmlns:sodipodi="http://sodipodi.sourceforge.net/DTD/sodipodi-0.dtd"
   xmlns:inkscape="http://www.inkscape.org/namespaces/inkscape"
   version="1.1"
   id="svg3718"
   xml:space="preserve"
   width="480.448"
   height="189.35468"
   viewBox="0 0 480.448 189.35468"
   sodipodi:docname="ma23.svg"
   inkscape:version="0.92.4 (5da689c313, 2019-01-14)"><metadata
     id="metadata3724"><rdf:RDF><cc:Work
         rdf:about=""><dc:format>image/svg+xml</dc:format><dc:type
           rdf:resource="http://purl.org/dc/dcmitype/StillImage" /><dc:title /></cc:Work></rdf:RDF></metadata><defs
     id="defs3722"><clipPath
       clipPathUnits="userSpaceOnUse"
       id="clipPath3734"><path
         d="M 0,142.016 H 360.336 V 0 H 0 Z"
         id="path3732"
         inkscape:connector-curvature="0" /></clipPath></defs><sodipodi:namedview
     pagecolor="#ffffff"
     bordercolor="#666666"
     borderopacity="1"
     objecttolerance="10"
     gridtolerance="10"
     guidetolerance="10"
     inkscape:pageopacity="0"
     inkscape:pageshadow="2"
     inkscape:window-width="2560"
     inkscape:window-height="1403"
     id="namedview3720"
     showgrid="false"
     inkscape:zoom="2.2606318"
     inkscape:cx="321.49829"
     inkscape:cy="76.871468"
     inkscape:window-x="2560"
     inkscape:window-y="0"
     inkscape:window-maximized="1"
     inkscape:current-layer="g3726" /><g
     id="g3726"
     inkscape:groupmode="layer"
     inkscape:label="SW_Logo_En_pos_rgb"
     transform="matrix(1.3333333,0,0,-1.3333333,0,189.35467)"><g
       id="g3728"><g
         id="g3730"
         clip-path="url(#clipPath3734)"><g
           id="g3736"
           transform="translate(55.2723,88.3866)"><path
             d="m 0,0 v 38.293 h -41.101 c 0,-13.314 1.012,-26.232 2.866,-38.293 z"
             style="fill:#ff0000;fill-opacity:1;fill-rule:nonzero;stroke:none"
             id="path3738"
             inkscape:connector-curvature="0" /></g><g
           id="g3740"
           transform="translate(55.2723,76.3256)"><path
             d="M 0,0 H -36.039 C -29.133,-32.709 -15.791,-57.066 0,-62.152 Z"
             style="fill:#ff0000;fill-opacity:1;fill-rule:nonzero;stroke:none"
             id="path3742"
             inkscape:connector-curvature="0" /></g><g
           id="g3744"
           transform="translate(67.3338,88.3866)"><path
             d="M 0,0 V 38.293 H 41.101 C 41.101,24.979 40.089,12.061 38.235,0 Z"
             style="fill:#ff0000;fill-opacity:1;fill-rule:nonzero;stroke:none"
             id="path3746"
             inkscape:connector-curvature="0" /></g><g
           id="g3748"
           transform="translate(67.3338,76.3256)"><path
             d="M 0,0 H 36.039 C 29.133,-32.709 15.791,-57.066 0,-62.152 Z"
             style="fill:#ff0000;fill-opacity:1;fill-rule:nonzero;stroke:none"
             id="path3750"
             inkscape:connector-curvature="0" /></g><g
           id="g3752"
           transform="translate(163.719,76.7992)"><path
             d="m 0,0 c -4.763,0 -8.974,1.071 -12.632,3.214 -3.659,2.143 -6.505,5.131 -8.54,8.962 -2.036,3.832 -3.052,8.281 -3.052,13.346 0,3.853 0.617,7.348 1.851,10.488 1.234,3.138 2.965,5.822 5.196,8.053 2.228,2.229 4.848,3.95 7.857,5.163 3.009,1.211 6.268,1.818 9.775,1.818 2.813,0 5.4,-0.369 7.759,-1.104 2.36,-0.737 4.406,-1.689 6.138,-2.857 L 12.988,38.77 h -0.389 c -1.387,1.082 -3.01,1.948 -4.871,2.598 -1.862,0.649 -3.941,0.974 -6.234,0.974 -3.075,0 -5.813,-0.661 -8.215,-1.981 -2.404,-1.321 -4.299,-3.226 -5.683,-5.715 -1.387,-2.49 -2.078,-5.531 -2.078,-9.124 0,-3.464 0.659,-6.462 1.98,-8.995 1.32,-2.532 3.192,-4.47 5.618,-5.812 2.424,-1.342 5.26,-2.013 8.508,-2.013 2.293,0 4.513,0.325 6.656,0.974 2.143,0.649 3.971,1.45 5.487,2.403 h 0.39 L 12.729,3.117 C 9.049,1.039 4.805,0 0,0"
             style="fill:#292929;fill-opacity:1;fill-rule:nonzero;stroke:none"
             id="path3754"
             inkscape:connector-curvature="0" /></g><path
           d="m 185.523,110.634 h 9.091 V 77.968 h -9.091 z m 4.545,5.26 c -1.732,0 -3.139,0.53 -4.221,1.591 -1.082,1.06 -1.624,2.392 -1.624,3.994 0,1.645 0.542,2.987 1.624,4.026 1.082,1.039 2.489,1.559 4.221,1.559 1.775,0 3.193,-0.52 4.255,-1.559 1.06,-1.039 1.591,-2.381 1.591,-4.026 0,-1.602 -0.531,-2.934 -1.591,-3.994 -1.062,-1.061 -2.48,-1.591 -4.255,-1.591"
           style="fill:#292929;fill-opacity:1;fill-rule:nonzero;stroke:none"
           id="path3756"
           inkscape:connector-curvature="0" /><g
           id="g3758"
           transform="translate(220.8357,77.9677)"><path
             d="m 0,0 h -10.001 c -1.56,2.165 -2.74,4.644 -3.54,7.436 -0.801,2.793 -1.201,5.963 -1.201,9.514 v 8.118 h -5.715 v 7.598 h 5.715 v 9.676 h 8.963 v -9.676 h 7.662 l -1.3,-7.598 h -6.362 v -7.403 c 0,-3.681 0.507,-6.885 1.524,-9.612 C -3.237,5.326 -1.819,2.792 0,0.455 Z"
             style="fill:#292929;fill-opacity:1;fill-rule:nonzero;stroke:none"
             id="path3760"
             inkscape:connector-curvature="0" /></g><g
           id="g3762"
           transform="translate(229.9764,61.7323)"><path
             d="m 0,0 v 0.454 l 8.572,15.781 c -1.776,2.858 -3.474,6.083 -5.097,9.677 -1.624,3.593 -3.064,7.371 -4.319,11.332 -1.257,3.962 -2.252,7.847 -2.988,11.657 h 9.353 c 0.605,-3.724 1.58,-7.718 2.921,-11.982 1.341,-4.265 2.923,-8.41 4.741,-12.436 h 0.455 c 1.861,4.113 3.474,8.171 4.838,12.177 1.364,4.004 2.371,8.085 3.02,12.241 h 8.198 C 28.654,43.272 27.871,37.829 25.814,32.568 23.758,27.308 21.236,21.863 18.249,16.235 L 9.612,0 Z"
             style="fill:#292929;fill-opacity:1;fill-rule:nonzero;stroke:none"
             id="path3764"
             inkscape:connector-curvature="0" /></g><g
           id="g3766"
           transform="translate(294.9813,85.1117)"><path
             d="m 0,0 c 2.425,0 4.405,0.812 5.942,2.435 1.537,1.624 2.306,3.885 2.306,6.786 0,2.901 -0.769,5.174 -2.306,6.82 -1.537,1.644 -3.517,2.467 -5.942,2.467 -2.382,0 -4.35,-0.823 -5.909,-2.467 -1.558,-1.646 -2.338,-3.919 -2.338,-6.82 0,-2.901 0.78,-5.162 2.338,-6.786 C -4.35,0.812 -2.382,0 0,0 m 0,-7.923 c -3.334,0 -6.321,0.693 -8.961,2.078 -2.642,1.385 -4.72,3.366 -6.234,5.942 -1.517,2.575 -2.275,5.618 -2.275,9.124 0,3.507 0.758,6.548 2.275,9.125 1.514,2.575 3.592,4.567 6.234,5.974 2.64,1.407 5.627,2.111 8.961,2.111 3.334,0 6.321,-0.704 8.962,-2.111 2.641,-1.407 4.719,-3.399 6.235,-5.974 1.515,-2.577 2.273,-5.618 2.273,-9.125 0,-3.506 -0.758,-6.549 -2.273,-9.124 C 13.681,-2.479 11.603,-4.46 8.962,-5.845 6.321,-7.23 3.334,-7.923 0,-7.923"
             style="fill:#292929;fill-opacity:1;fill-rule:nonzero;stroke:none"
             id="path3768"
             inkscape:connector-curvature="0" /></g><g
           id="g3770"
           transform="translate(322.3074,77.9677)"><path
             d="m 0,0 v 25.068 h -6.235 v 7.598 H 0 v 2.922 c 0,4.502 1.179,7.923 3.539,10.261 2.359,2.338 5.357,3.507 8.994,3.507 1.429,0 2.695,-0.13 3.799,-0.39 1.105,-0.259 1.303,-0.563 2.126,-0.909 l -1.233,-7.403 h -0.39 c -1.04,0.562 -1.424,0.844 -2.679,0.844 -1.557,0 -2.792,-0.52 -3.7,-1.559 C 9.545,38.9 9.092,37.342 9.092,35.263 v -2.597 h 8.377 l -1.3,-7.598 H 9.092 V 0 Z"
             style="fill:#292929;fill-opacity:1;fill-rule:nonzero;stroke:none"
             id="path3772"
             inkscape:connector-curvature="0" /></g><g
           id="g3774"
           transform="translate(165.4725,15.9042)"><path
             d="m 0,0 h -10.456 c -1.646,3.203 -3.28,6.764 -4.904,10.683 -1.623,3.918 -3.161,8.02 -4.611,12.306 -1.45,4.286 -2.771,8.615 -3.961,12.989 -1.192,4.372 -2.175,8.615 -2.955,12.728 h 9.936 c 1.256,-6.884 2.891,-13.682 4.904,-20.393 2.013,-6.71 4.275,-13.118 6.787,-19.221 h 0.389 c 2.51,6.103 4.774,12.511 6.787,19.221 2.013,6.711 3.625,13.509 4.837,20.393 h 9.678 C 15.65,44.593 14.666,40.35 13.475,35.978 12.284,31.604 10.963,27.275 9.514,22.989 8.063,18.703 6.527,14.601 4.903,10.683 3.28,6.764 1.644,3.203 0,0"
             style="fill:#292929;fill-opacity:1;fill-rule:nonzero;stroke:none"
             id="path3776"
             inkscape:connector-curvature="0" /></g><path
           d="m 186.853,48.569 h 9.092 V 15.904 h -9.092 z m 4.545,5.261 c -1.731,0 -3.138,0.529 -4.219,1.591 -1.084,1.06 -1.625,2.391 -1.625,3.994 0,1.644 0.541,2.987 1.625,4.026 1.081,1.039 2.488,1.559 4.219,1.559 1.776,0 3.194,-0.52 4.254,-1.559 1.062,-1.039 1.591,-2.382 1.591,-4.026 0,-1.603 -0.529,-2.934 -1.591,-3.994 -1.06,-1.062 -2.478,-1.591 -4.254,-1.591"
           style="fill:#292929;fill-opacity:1;fill-rule:nonzero;stroke:none"
           id="path3778"
           inkscape:connector-curvature="0" /><g
           id="g3780"
           transform="translate(217.6658,42.0751)"><path
             d="M 0,0 C -2.035,0 -3.714,-0.617 -5.033,-1.851 -6.355,-3.084 -7.167,-4.936 -7.469,-7.402 L 6.429,-5.844 C 6.126,-3.811 5.411,-2.328 4.286,-1.396 3.159,-0.466 1.731,0 0,0 m 0.52,-26.95 c -3.552,0 -6.614,0.692 -9.19,2.078 -2.577,1.385 -4.557,3.354 -5.942,5.909 -1.386,2.555 -2.078,5.541 -2.078,8.962 0,3.594 0.723,6.678 2.175,9.254 1.451,2.576 3.452,4.557 6.006,5.942 2.555,1.386 5.456,2.079 8.703,2.079 4.807,0 8.55,-1.473 11.235,-4.417 2.684,-2.944 4.026,-7.012 4.026,-12.209 v -2.012 l -22.47,-2.533 c 0.606,-1.992 1.69,-3.399 3.247,-4.221 1.56,-0.823 3.463,-1.235 5.715,-1.235 2.121,0 4.242,0.282 6.365,0.845 2.121,0.562 3.723,1.19 4.806,1.883 h 0.454 l -1.299,-7.793 c -1.212,-0.649 -2.9,-1.234 -5.065,-1.753 C 5.042,-26.69 2.813,-26.95 0.52,-26.95"
             style="fill:#292929;fill-opacity:1;fill-rule:nonzero;stroke:none"
             id="path3782"
             inkscape:connector-curvature="0" /></g><g
           id="g3784"
           transform="translate(238.657,15.9042)"><path
             d="m 0,0 v 32.665 h 8.248 v -5.519 h 0.389 c 0.822,1.904 2.176,3.43 4.059,4.578 1.883,1.146 4.079,1.721 6.591,1.721 3.81,0 6.808,-1.267 8.995,-3.799 2.185,-2.534 3.279,-6.051 3.279,-10.553 V 0 h -9.092 v 17.924 c 0,5.107 -2.1,7.663 -6.299,7.663 -2.122,0 -3.832,-0.758 -5.13,-2.274 C 9.741,21.798 9.091,19.784 9.091,17.274 V 0 Z"
             style="fill:#292929;fill-opacity:1;fill-rule:nonzero;stroke:none"
             id="path3786"
             inkscape:connector-curvature="0" /></g><g
           id="g3788"
           transform="translate(277.701,15.9042)"><path
             d="m 0,0 v 32.665 h 8.248 v -5.519 h 0.39 c 0.822,1.904 2.175,3.43 4.058,4.578 1.883,1.146 4.081,1.721 6.593,1.721 3.808,0 6.808,-1.267 8.993,-3.799 2.187,-2.534 3.28,-6.051 3.28,-10.553 V 0 h -9.091 v 17.924 c 0,5.107 -2.102,7.663 -6.299,7.663 -2.122,0 -3.832,-0.758 -5.132,-2.274 C 9.741,21.798 9.093,19.784 9.093,17.274 V 0 Z"
             style="fill:#292929;fill-opacity:1;fill-rule:nonzero;stroke:none"
             id="path3790"
             inkscape:connector-curvature="0" /></g><g
           id="g3792"
           transform="translate(323.6287,25.6454)"><path
             d="m 0,0 c 0,-0.953 0.313,-1.754 0.942,-2.403 0.626,-0.65 1.657,-0.974 3.084,-0.974 2.252,0 4.125,0.659 5.619,1.981 1.494,1.32 2.24,3.062 2.24,5.227 V 4.61 L 5.001,3.831 C 3.269,3.658 2.003,3.279 1.201,2.694 0.4,2.11 0,1.211 0,0 m 1.104,-10.261 c -3.16,0 -5.671,0.844 -7.532,2.532 -1.862,1.689 -2.794,4.048 -2.794,7.08 0,3.073 1.082,5.497 3.247,7.273 2.165,1.774 5.087,2.835 8.769,3.182 l 9.091,0.909 v 0.065 c 0,1.775 -0.487,3.117 -1.461,4.027 -0.975,0.909 -2.76,1.363 -5.358,1.363 -1.949,0 -3.928,-0.228 -5.942,-0.682 -2.013,-0.454 -3.627,-0.985 -4.839,-1.591 h -0.389 l 1.299,7.728 c 1.385,0.562 3.095,1.05 5.13,1.462 2.034,0.411 4.177,0.617 6.429,0.617 4.893,0 8.485,-1.148 10.781,-3.443 2.294,-2.295 3.442,-5.628 3.442,-10.001 V -0.13 c 0,-1.688 0.119,-3.356 0.358,-5.001 0.237,-1.645 0.637,-3.03 1.201,-4.156 v -0.454 h -8.507 c -0.261,0.648 -0.499,1.461 -0.715,2.434 -0.218,0.975 -0.347,1.872 -0.389,2.696 h -0.39 C 11.711,-6.213 10.283,-7.557 8.248,-8.638 6.213,-9.72 3.832,-10.261 1.104,-10.261"
             style="fill:#292929;fill-opacity:1;fill-rule:nonzero;stroke:none"
             id="path3794"
             inkscape:connector-curvature="0" /></g></g></g><text
       xml:space="preserve"
       style="font-style:normal;font-weight:normal;font-size:20px;line-height:1.25;font-family:sans-serif;letter-spacing:0px;word-spacing:0px;fill:#000000;fill-opacity:1;stroke:none;stroke-width:0.75"
       x="170.52756"
       y="55.073097"
       id="text848"
       transform="scale(1,-1)"><tspan
         sodipodi:role="line"
         id="tspan846"
         x="170.52756"
         y="55.073097"
         style="font-size:48px;stroke-width:0.75;-inkscape-font-specification:Ubuntu;font-family:Ubuntu;font-weight:normal;font-style:normal;font-stretch:normal;font-variant:normal">City of</tspan><tspan
         sodipodi:role="line"
         x="170.52756"
         y="115.0731"
         style="font-size:48px;stroke-width:0.75;-inkscape-font-specification:Ubuntu;font-family:Ubuntu;font-weight:normal;font-style:normal;font-stretch:normal;font-variant:normal"
         id="tspan850">Vienna</tspan></text>
</g></svg>