<?xml version="1.0" standalone="no"?>
<!DOCTYPE svg PUBLIC "-//W3C//DTD SVG 20010904//EN"
 "http://www.w3.org/TR/2001/REC-SVG-20010904/DTD/svg10.dtd">
<svg version="1.0" xmlns="http://www.w3.org/2000/svg"
 width="1144.000000pt" height="1144.000000pt" viewBox="0 0 1144.000000 1144.000000"
 preserveAspectRatio="xMidYMid meet">
<metadata>
Created by potrace 1.11, written by Peter Selinger 2001-2013
</metadata>
<g transform="translate(0.000000,1144.000000) scale(0.100000,-0.100000)"
fill="#000000" stroke="none">
<path d="M5290 11433 c-120 -7 -430 -45 -559 -69 -803 -146 -1528 -487 -2162
-1015 -150 -125 -433 -406 -548 -544 -400 -480 -673 -968 -862 -1535 -161
-488 -225 -855 -236 -1365 -10 -460 30 -823 137 -1242 48 -187 149 -494 215
-648 45 -105 194 -415 213 -444 8 -11 30 -2 113 46 57 33 221 127 364 210 143
83 438 253 655 378 217 125 512 295 655 378 143 83 346 199 450 259 105 60
194 113 199 118 6 6 -9 49 -37 108 -135 292 -181 665 -127 1033 73 493 366
938 813 1236 217 145 557 262 814 280 l83 6 0 1408 0 1409 -62 -2 c-35 -1 -88
-3 -118 -5z m-2362 -2205 c9 -9 12 -104 12 -365 0 -397 5 -374 -75 -327 l-44
25 -320 -141 c-176 -78 -325 -139 -331 -135 -6 4 -10 125 -10 355 0 392 -5
369 78 393 121 36 591 180 627 192 51 17 49 17 63 3z m-965 -183 c66 -29 77
-46 77 -116 l0 -52 -40 6 c-22 3 -60 17 -85 31 l-45 27 0 64 c0 77 6 79 93 40z
m-56 -170 c12 -8 45 -21 75 -29 l53 -13 3 -177 c2 -144 0 -176 -11 -176 -24 0
-80 22 -119 47 l-38 23 0 170 c0 94 3 170 8 170 4 0 17 -7 29 -15z m17 -400
c27 -14 57 -25 67 -25 46 0 49 -8 49 -110 0 -79 -3 -102 -17 -118 -22 -23
-128 -67 -142 -57 -9 5 -17 335 -8 335 1 0 24 -11 51 -25z m1189 -241 c153
-102 277 -190 274 -197 -4 -14 -80 -56 -402 -225 -457 -239 -482 -251 -502
-246 -17 5 -535 393 -573 430 -13 12 -13 16 0 28 8 8 110 56 225 107 116 51
309 137 430 190 121 54 231 99 245 99 15 0 128 -69 303 -186z m353 -339 c9
-35 -3 -90 -24 -107 -39 -34 -962 -538 -984 -538 -16 0 -117 72 -303 216 -154
118 -291 226 -304 239 -20 19 -25 36 -29 99 -4 64 -2 77 12 82 16 6 91 -49
481 -348 94 -72 148 -108 166 -108 23 0 176 78 749 381 113 60 211 109 217
109 7 0 15 -11 19 -25z"/>
<path d="M2683 8322 c-62 -26 -117 -52 -124 -59 -13 -13 8 -29 274 -211 97
-67 182 -122 188 -122 11 0 155 81 202 113 22 15 25 22 16 33 -19 23 -418 294
-431 293 -7 0 -63 -22 -125 -47z m305 -113 c97 -67 182 -126 189 -133 9 -8 -7
-22 -72 -59 l-84 -48 -193 133 c-106 73 -195 138 -197 143 -3 8 146 81 172 84
4 1 87 -53 185 -120z"/>
<path d="M5642 10034 l3 -1409 85 -8 c208 -18 443 -87 655 -192 347 -172 626
-454 800 -807 155 -316 212 -592 194 -936 -12 -208 -70 -440 -159 -629 -22
-48 -37 -90 -33 -93 5 -4 91 -54 193 -112 102 -58 282 -162 400 -230 118 -69
382 -221 585 -338 350 -201 509 -294 1029 -595 203 -117 221 -125 233 -109 24
33 101 188 167 338 296 666 435 1404 398 2103 -50 918 -337 1745 -861 2481
-374 525 -885 989 -1450 1317 -643 373 -1336 575 -2124 621 l-117 7 2 -1409z
m2883 -1173 c22 -11 108 -76 190 -145 83 -69 153 -126 158 -126 4 0 7 61 7
135 0 161 -5 155 137 155 153 0 143 20 144 -283 l0 -252 150 -123 c99 -82 149
-130 149 -143 0 -31 -100 -149 -126 -149 -13 0 -71 41 -145 103 -517 428 -714
587 -730 587 -10 0 -208 -155 -440 -345 -232 -190 -428 -345 -436 -345 -28 0
-139 139 -130 163 2 7 202 174 443 371 242 198 447 366 456 374 20 17 85 41
113 41 11 0 38 -8 60 -18z m278 -652 c180 -149 335 -281 343 -295 14 -21 15
-55 9 -288 -10 -344 20 -311 -282 -311 -211 0 -225 1 -239 19 -11 16 -14 64
-14 226 0 147 -3 209 -12 218 -8 8 -57 12 -153 12 -96 0 -145 -4 -153 -12 -9
-9 -12 -72 -12 -223 0 -151 -3 -214 -12 -223 -9 -9 -76 -12 -240 -12 l-229 0
-24 25 -25 24 0 275 0 274 58 49 c200 173 626 513 640 513 10 0 165 -122 345
-271z"/>
<path d="M9293 10194 c-58 -29 -85 -98 -60 -155 8 -19 58 -88 111 -154 382
-476 699 -1099 871 -1710 468 -1671 4 -3486 -1209 -4724 -547 -557 -1190 -964
-1916 -1212 -1036 -354 -2135 -351 -3190 10 -224 76 -570 231 -759 338 -378
216 -703 454 -976 714 -136 130 -150 139 -199 139 -77 -1 -126 -51 -126 -130
0 -44 2 -47 123 -165 336 -332 785 -649 1242 -877 659 -330 1361 -511 2113
-544 l152 -7 0 -773 0 -774 -2311 0 -2311 0 -29 -29 c-38 -38 -38 -74 0 -112
l29 -29 4712 0 4711 0 24 25 c31 30 33 83 6 116 l-19 24 -2321 3 -2321 2 0
775 c0 731 1 775 18 775 69 1 345 24 477 40 1110 136 2152 634 2947 1409 87
85 204 205 259 267 1058 1186 1509 2790 1224 4350 -87 473 -231 906 -450 1349
-169 342 -357 641 -580 920 -122 153 -164 177 -242 139z"/>
<path d="M5400 8440 c-316 -24 -639 -159 -903 -380 -387 -324 -608 -825 -584
-1330 23 -490 254 -935 638 -1231 111 -86 163 -118 289 -178 454 -216 940
-223 1391 -20 195 88 327 178 480 329 273 269 428 585 480 975 18 138 6 392
-25 541 -68 323 -208 577 -450 820 -282 281 -630 445 -1009 474 -142 11 -161
11 -307 0z m-105 -379 c22 -10 63 -37 92 -60 108 -85 187 -193 566 -773 53
-82 98 -148 101 -148 7 0 131 170 190 262 126 193 172 336 121 375 -41 31
-167 -4 -292 -82 -71 -44 -48 -18 27 31 108 69 193 106 251 107 45 2 54 -2 76
-27 23 -27 25 -36 21 -100 -9 -133 -129 -372 -309 -613 l-31 -41 58 -79 c256
-349 476 -540 704 -614 53 -17 53 -18 19 -18 -89 -2 -238 68 -373 173 -94 73
-268 252 -375 384 -41 51 -77 92 -80 91 -4 0 -36 -37 -73 -82 -284 -349 -757
-760 -1268 -1102 -255 -171 -277 -179 -70 -25 432 322 937 798 1280 1205 53
62 71 91 64 100 -5 7 -43 59 -85 116 -42 57 -129 178 -194 269 -323 451 -405
540 -502 540 -85 0 -139 -81 -226 -336 -68 -197 -127 -441 -231 -959 -53 -258
-100 -483 -105 -500 -13 -41 -13 -7 -1 52 6 26 30 208 55 403 73 571 122 851
182 1050 90 300 180 420 312 420 33 0 73 -8 96 -19z"/>
<path d="M3820 5701 c-102 -59 -336 -195 -520 -301 -184 -106 -452 -261 -595
-343 -480 -278 -759 -438 -937 -540 -98 -56 -178 -107 -178 -113 0 -6 40 -72
90 -148 447 -682 1071 -1236 1807 -1605 1062 -532 2320 -633 3453 -276 255 80
448 158 693 281 216 108 332 176 537 315 532 360 1018 868 1339 1401 l22 37
-93 54 c-51 30 -169 98 -263 152 -93 54 -255 148 -360 208 -104 60 -305 176
-445 257 -140 81 -448 259 -685 395 -236 137 -466 269 -509 294 l-80 45 -20
-29 c-280 -389 -635 -639 -1056 -745 -302 -76 -568 -80 -870 -14 -159 35 -245
65 -386 134 -284 138 -543 358 -704 597 -19 29 -39 52 -45 52 -5 0 -93 -48
-195 -108z m1812 -931 c52 -15 117 -67 151 -122 22 -35 31 -64 34 -112 5 -59
3 -72 -26 -130 -49 -100 -123 -146 -233 -146 -152 1 -258 107 -258 261 0 175
161 296 332 249z m-712 -514 c543 -115 759 -114 1311 7 86 19 169 32 183 30
15 -3 40 -19 56 -35 56 -55 35 -158 -37 -186 -50 -20 -348 -80 -580 -118 l-33
-5 0 -109 c0 -138 17 -384 36 -520 20 -146 48 -253 106 -407 57 -151 58 -181
7 -232 -52 -52 -125 -53 -179 -3 -49 45 -137 289 -174 482 -9 47 -19 95 -22
108 -3 17 -11 22 -37 22 l-32 0 -22 -114 c-23 -120 -72 -277 -126 -411 -25
-60 -41 -86 -67 -102 -83 -57 -200 3 -200 101 0 23 15 80 35 131 100 252 132
446 151 892 l6 162 -33 5 c-143 22 -259 43 -414 77 -172 37 -181 40 -212 74
-43 45 -45 99 -7 144 25 31 75 52 104 45 8 -1 89 -19 180 -38z"/>
</g>
</svg>
